<?xml version="1.0" encoding="utf-8"?>
<!-- Generator: Adobe Illustrator 24.1.3, SVG Export Plug-In . SVG Version: 6.00 Build 0)  -->
<svg version="1.1" id="Share" xmlns="http://www.w3.org/2000/svg" xmlns:xlink="http://www.w3.org/1999/xlink" x="0px" y="0px"
	 viewBox="0 0 20 20" style="enable-background:new 0 0 20 20;" xml:space="preserve">
<style type="text/css">
	.st0{fill:#39617D;}
</style>
<path class="st0" d="M15,13.4c-0.6,0-1.2,0.2-1.6,0.6l-5.9-3.5c0-0.2,0.1-0.4,0.1-0.6s0-0.4-0.1-0.6L13.3,6c0.4,0.4,1,0.7,1.7,0.7
	c1.4,0,2.5-1.1,2.5-2.5S16.4,1.7,15,1.7s-2.5,1.1-2.5,2.5c0,0.2,0,0.4,0.1,0.6L6.7,8.2C6.3,7.8,5.7,7.5,5,7.5
	c-1.4,0-2.5,1.1-2.5,2.5s1.1,2.5,2.5,2.5c0.7,0,1.3-0.3,1.7-0.7l5.9,3.5c0,0.2-0.1,0.4-0.1,0.5c0,1.3,1.1,2.4,2.4,2.4
	s2.4-1.1,2.4-2.4S16.3,13.4,15,13.4z"/>
</svg>
